<svg width="24" height="24" viewBox="0 0 24 24" fill="none" xmlns="http://www.w3.org/2000/svg">
<circle cx="12" cy="12" r="11.5" fill="white" stroke="#E5E7EB"/>
<path d="M8.11111 16.6667H10.4444V13.5556H11.2222V11.6111C11.2222 11.1833 11.0699 10.8171 10.7653 10.5125C10.4606 10.2079 10.0944 10.0556 9.66667 10.0556H8.88889C8.46111 10.0556 8.09491 10.2079 7.79028 10.5125C7.48565 10.8171 7.33333 11.1833 7.33333 11.6111V13.5556H8.11111V16.6667ZM9.27778 9.27778C9.55 9.27778 9.78009 9.1838 9.96806 8.99583C10.156 8.80787 10.25 8.57778 10.25 8.30556C10.25 8.03333 10.156 7.80324 9.96806 7.61528C9.78009 7.42731 9.55 7.33333 9.27778 7.33333C9.00556 7.33333 8.77546 7.42731 8.5875 7.61528C8.39954 7.80324 8.30556 8.03333 8.30556 8.30556C8.30556 8.57778 8.39954 8.80787 8.5875 8.99583C8.77546 9.1838 9.00556 9.27778 9.27778 9.27778ZM12.7778 11.2222H16.6667L14.7222 8.11111L12.7778 11.2222ZM14.7222 15.8889L16.6667 12.7778H12.7778L14.7222 15.8889ZM6.55556 19C6.12778 19 5.76157 18.8477 5.45694 18.5431C5.15231 18.2384 5 17.8722 5 17.4444V6.55556C5 6.12778 5.15231 5.76157 5.45694 5.45694C5.76157 5.15231 6.12778 5 6.55556 5H17.4444C17.8722 5 18.2384 5.15231 18.5431 5.45694C18.8477 5.76157 19 6.12778 19 6.55556V17.4444C19 17.8722 18.8477 18.2384 18.5431 18.5431C18.2384 18.8477 17.8722 19 17.4444 19H6.55556ZM6.55556 17.4444H17.4444V6.55556H6.55556V17.4444Z" fill="#3F3F46"/>
</svg>
