<svg width="40" height="40" viewBox="0 0 40 40" fill="none" xmlns="http://www.w3.org/2000/svg">
<g clip-path="url(#clip0_11290_1646)">
<path fill-rule="evenodd" clip-rule="evenodd" d="M11.732 8.85001L4 13.6924L11.782 13.7448C16.062 13.7734 23.0658 13.7734 27.346 13.7448L35.1282 13.6924L27.3662 8.84241C23.097 6.17501 19.5726 3.99581 19.534 4.00001C19.4954 4.00421 15.9844 6.18681 11.732 8.85001ZM14.1134 9.05541L8.9628 12.2924L14.2634 12.3456C17.1786 12.375 21.9594 12.375 24.8872 12.3456L30.2106 12.2924L25.0074 9.04241C22.1456 7.25501 19.6826 5.79821 19.534 5.80541C19.3854 5.81261 16.946 7.27501 14.1134 9.05541ZM18.4564 7.64801C17.691 8.30641 17.6808 9.46961 18.4346 10.118C19.1816 10.7606 20.1482 10.7476 20.769 10.087C22.2426 8.51841 20.0872 6.24521 18.4564 7.64801ZM6.1638 15.4924V16.1924H19.5638H32.9638V15.4924V14.7924H19.5638H6.1638V15.4924ZM7.5638 24.2924V31.3924H8.9638H10.3638V24.2924V17.1924H8.9638H7.5638V24.2924ZM12.8112 24.2424L12.8638 31.2924H14.2638H15.6638L15.7164 24.2424L15.769 17.1924H14.2638H12.7586L12.8112 24.2424ZM18.1638 24.2924V31.3924H19.5638H20.9638V24.2924V17.1924H19.5638H18.1638V24.2924ZM23.4112 24.2424L23.4638 31.2924L24.9138 31.3512L26.3638 31.41V24.3012V17.1924H24.8612H23.3586L23.4112 24.2424ZM28.7638 24.2924V31.3924H30.1638H31.5638V24.2924V17.1924H30.1638H28.7638V24.2924ZM6.1638 32.9924V33.7924H19.5638H32.9638V32.9924V32.1924H19.5638H6.1638V32.9924ZM4.3638 35.2924V35.9924H19.5638H34.7638V35.2924V34.5924H19.5638H4.3638V35.2924Z" fill="#C5122D"/>
</g>
<defs>
<clipPath id="clip0_11290_1646">
<rect width="40" height="40" fill="white"/>
</clipPath>
</defs>
</svg>
