<svg width="40" height="40" viewBox="0 0 40 40" fill="none" xmlns="http://www.w3.org/2000/svg">
<path fill-rule="evenodd" clip-rule="evenodd" d="M12.0069 5.1416C11.9395 5.2228 11.8799 5.6816 11.8671 6.2166L11.8448 7.15L9.895 7.2L7.9452 7.25L7.2854 7.575C6.503 7.9603 5.8884 8.5882 5.516 9.3825L5.25 9.95V21.1V32.25L5.5222 32.8037C6.0984 33.9759 7.0333 34.6801 8.3005 34.8966C8.7574 34.9746 12.3605 34.999 20.45 34.9788L31.95 34.95L32.5338 34.6765C33.2428 34.3444 33.6356 34.0252 34.1119 33.3942C34.8408 32.4286 34.8132 32.9501 34.7798 20.7978L34.75 9.9457L34.425 9.2856C34.0393 8.5023 33.4111 7.8876 32.6175 7.5172C32.0809 7.2668 31.9441 7.2496 30.1026 7.2012L28.1552 7.15L28.1329 6.2166C28.11 5.257 28.0175 5 27.6949 5C27.304 5 27.2 5.2641 27.2 6.2571V7.2H20H12.8V6.2571C12.8 5.5333 12.7635 5.2778 12.6429 5.1571C12.4475 4.9618 12.162 4.9548 12.0069 5.1416ZM8.3 8.1924C7.5144 8.3536 6.8108 8.8954 6.4225 9.638C6.1584 10.143 6.1542 10.1817 6.118 12.475L6.0813 14.8H20H33.9187L33.882 12.475C33.8458 10.1817 33.8416 10.143 33.5775 9.638C33.2861 9.0806 32.9008 8.7104 32.2616 8.3735C31.883 8.1739 31.7016 8.1562 30 8.1532L28.15 8.15L28.1381 9.0689C28.1235 10.1887 28.086 10.3 27.7231 10.3C27.2643 10.3 27.2 10.15 27.2 9.08V8.1H20H12.8V9.08C12.8 10.15 12.7357 10.3 12.2769 10.3C11.914 10.3 11.8765 10.1887 11.8619 9.0689L11.85 8.15L10.25 8.1353C9.37 8.1272 8.4925 8.1529 8.3 8.1924ZM6.167 15.7663C6.0488 15.8846 6.0886 31.3372 6.2086 31.8967C6.3795 32.6934 6.853 33.2935 7.6081 33.6702L8.25 33.9904L19.95 34.0202L31.65 34.05L32.1779 33.8114C32.7867 33.5363 33.5212 32.7782 33.7184 32.2215C33.823 31.9261 33.85 30.2009 33.85 23.8V15.75L20.042 15.7246C12.4476 15.7107 6.2039 15.7295 6.167 15.7663ZM14 20.1V21.1H14.95H15.9V20.1V19.1H14.95H14V20.1ZM19.0702 19.1632C19.0316 19.2018 19 19.6533 19 20.1667V21.1H20.0036H21.0072L20.9786 20.125L20.95 19.15L20.0452 19.1215C19.5475 19.1058 19.1087 19.1246 19.0702 19.1632ZM24.1 20.1V21.1H25.05H26V20.1V19.1H25.05H24.1V20.1ZM29.1667 19.1667C29.13 19.2033 29.1 19.6533 29.1 20.1667V21.1H30.1H31.1V20.1V19.1H30.1667C29.6533 19.1 29.2033 19.13 29.1667 19.1667ZM30.214 24.2559C28.9802 25.0595 28.7 25.1713 28.7 24.8596C28.7 24.6857 28.3723 24.4 28.1728 24.4C28.084 24.4 27.9456 24.4939 27.8652 24.6086C27.7358 24.7934 27.7403 24.8917 27.9052 25.4682C28.1089 26.1805 28.2438 26.4 28.478 26.4C28.6412 26.4 31.5953 24.5164 31.975 24.1703C32.0988 24.0574 32.2 23.9087 32.2 23.8397C32.2 23.6558 31.9132 23.4 31.7069 23.4C31.6085 23.4 30.9367 23.7852 30.214 24.2559ZM8.9 24.9036V25.9072L9.875 25.8786L10.85 25.85L10.8786 24.875L10.9072 23.9H9.9036H8.9V24.9036ZM14 24.9V25.9H14.95H15.9V24.9V23.9H14.95H14V24.9ZM19 24.9V25.9H20H21V24.9V23.9H20H19V24.9ZM24.1 24.9V25.9H25.05H26V24.9V23.9H25.05H24.1V24.9ZM8.9 29.65V30.6H9.9H10.9V29.65V28.7H9.9H8.9V29.65ZM14 29.65V30.6H14.95H15.9V29.65V28.7H14.95H14V29.65ZM19 29.65V30.6H20H21V29.65V28.7H20H19V29.65ZM24.1 29.65V30.6H25.05H26V29.65V28.7H25.05H24.1V29.65ZM29.1 29.65V30.6H30.1H31.1V29.65V28.7H30.1H29.1V29.65Z" fill="#C51230"/>
</svg>
