<svg width="40" height="40" viewBox="0 0 40 40" fill="none" xmlns="http://www.w3.org/2000/svg">
<path fill-rule="evenodd" clip-rule="evenodd" d="M6.70054 4.92196C5.14774 5.27776 3.99774 6.47446 3.70934 8.03466C3.56114 8.83656 3.56454 15.0088 3.71354 15.7039C3.89974 16.572 4.16884 17.071 4.78104 17.6832C5.37894 18.2811 5.94824 18.6046 6.71254 18.7808C7.32894 18.9229 13.9457 18.9174 14.6206 18.7743C14.912 18.7124 15.353 18.5597 15.6005 18.435C16.2623 18.1014 17.1207 17.1528 17.4091 16.4363C17.6503 15.8372 17.6505 15.8331 17.6505 11.8367C17.6505 7.90276 17.6467 7.82736 17.4222 7.27196C17.038 6.32176 16.1676 5.48396 15.1005 5.03716C14.6916 4.86596 14.3126 4.84636 10.9505 4.82236C8.24854 4.80306 7.10224 4.82996 6.70054 4.92196ZM25.6505 4.85816C25.4855 4.88106 25.0815 4.99656 24.7528 5.11486C23.9258 5.41256 22.9278 6.39226 22.5915 7.23666C22.3571 7.82516 22.3519 7.90736 22.3208 11.5185C22.3005 13.8858 22.3276 15.3853 22.3968 15.7185C22.7198 17.2722 23.8743 18.4547 25.3804 18.7743C26.0553 18.9174 32.6721 18.9229 33.2885 18.7808C34.0528 18.6046 34.6221 18.2811 35.22 17.6832C35.8501 17.0531 36.129 16.5187 36.2943 15.6245C36.4361 14.8576 36.4339 8.80396 36.2916 8.03406C35.9976 6.44406 34.7431 5.18956 33.1531 4.89556C32.5959 4.79256 26.3488 4.76146 25.6505 4.85816ZM6.70054 6.45056C6.07594 6.66486 5.46384 7.28486 5.26294 7.90676C5.01834 8.66416 5.02224 15.0212 5.26774 15.7814C5.46514 16.3927 6.20094 17.1218 6.78364 17.2837C7.00214 17.3444 8.60664 17.3849 10.7505 17.3839C14.7618 17.3821 14.7946 17.3772 15.4928 16.679C16.1907 15.9811 16.1959 15.9465 16.1983 11.9483C16.1998 9.45936 16.1641 8.23826 16.0816 7.96306C15.9074 7.38156 15.1972 6.63846 14.6315 6.44566C13.9521 6.21416 7.37784 6.21826 6.70054 6.45056ZM25.4178 6.41356C25.2347 6.47216 24.8675 6.71556 24.6018 6.95456C23.8125 7.66406 23.8001 7.74116 23.8027 11.9295C23.8051 15.9487 23.8099 15.9807 24.5082 16.679C25.2061 17.3769 25.2407 17.3821 29.2389 17.3845C31.7278 17.386 32.9489 17.3503 33.2241 17.2678C33.4423 17.2024 33.8335 16.9577 34.0935 16.724C34.873 16.0232 34.9005 15.8563 34.9005 11.8287C34.9005 7.93306 34.8709 7.73526 34.1826 7.02406C33.496 6.31476 33.296 6.28516 29.264 6.29686C27.0833 6.30316 25.6243 6.34746 25.4178 6.41356Z" fill="#C51230"/>
<path fill-rule="evenodd" clip-rule="evenodd" d="M6.70115 21.3092C5.14835 21.665 3.99835 22.8617 3.70995 24.4219C3.56175 25.2238 3.56515 31.396 3.71415 32.0911C3.90035 32.9592 4.16945 33.4582 4.78165 34.0704C5.37955 34.6683 5.94885 34.9918 6.71315 35.168C7.32955 35.3101 13.9464 35.3046 14.6213 35.1615C14.9127 35.0996 15.3537 34.9469 15.6012 34.8222C16.263 34.4886 17.1214 33.54 17.4098 32.8235C17.651 32.2244 17.6512 32.2203 17.6512 28.2239C17.6512 24.29 17.6474 24.2146 17.4229 23.6592C17.0387 22.709 16.1683 21.8712 15.1012 21.4244C14.6923 21.2532 14.3133 21.2336 10.9512 21.2096C8.24915 21.1903 7.10285 21.2172 6.70115 21.3092ZM25.6512 21.2454C25.4862 21.2683 25.0822 21.3838 24.7535 21.5021C23.9265 21.7998 22.9285 22.7795 22.5922 23.6239C22.3578 24.2124 22.3526 24.2946 22.3215 27.9057C22.3012 30.273 22.3283 31.7725 22.3975 32.1057C22.7205 33.6594 23.875 34.8419 25.3811 35.1615C26.056 35.3046 32.6728 35.3101 33.2892 35.168C34.0535 34.9918 34.6228 34.6683 35.2207 34.0704C35.8508 33.4403 36.1297 32.9059 36.295 32.0117C36.4368 31.2448 36.4346 25.1912 36.2923 24.4213C35.9983 22.8313 34.7438 21.5768 33.1538 21.2828C32.5966 21.1798 26.3495 21.1487 25.6512 21.2454ZM6.70115 22.8378C6.07655 23.0521 5.46445 23.6721 5.26355 24.294C5.01895 25.0514 5.02285 31.4084 5.26835 32.1686C5.46575 32.7799 6.20155 33.509 6.78425 33.6709C7.00275 33.7316 8.60725 33.7721 10.7512 33.7711C14.7625 33.7693 14.7953 33.7644 15.4935 33.0662C16.1914 32.3683 16.1966 32.3337 16.199 28.3355C16.2005 25.8466 16.1648 24.6255 16.0823 24.3503C15.9081 23.7688 15.1979 23.0257 14.6322 22.8329C13.9528 22.6014 7.37845 22.6055 6.70115 22.8378ZM25.4185 22.8008C25.2354 22.8594 24.8682 23.1028 24.6025 23.3418C23.8132 24.0513 23.8008 24.1284 23.8034 28.3167C23.8058 32.3359 23.8106 32.3679 24.5089 33.0662C25.2068 33.7641 25.2414 33.7693 29.2396 33.7717C31.7285 33.7732 32.9496 33.7375 33.2248 33.655C33.443 33.5896 33.8342 33.3449 34.0942 33.1112C34.8737 32.4104 34.9012 32.2435 34.9012 28.2159C34.9012 24.3203 34.8716 24.1225 34.1833 23.4113C33.4967 22.702 33.2967 22.6724 29.2647 22.6841C27.084 22.6904 25.625 22.7347 25.4185 22.8008Z" fill="#C51230"/>
</svg>
