<svg width="40" height="40" viewBox="0 0 40 40" fill="none" xmlns="http://www.w3.org/2000/svg">
<path fill-rule="evenodd" clip-rule="evenodd" d="M19.6289 3.51232C19.4104 3.57779 19.2065 3.74783 19.09 3.96156C18.9913 4.14276 18.9778 4.22099 18.9778 4.61023C18.9778 4.98263 18.9649 5.06459 18.8965 5.12645C18.8216 5.19427 18.2465 5.20001 11.5299 5.20027C6.90894 5.20041 4.18716 5.21645 4.0877 5.24405C3.8793 5.30196 3.57605 5.62005 3.51534 5.84445C3.44939 6.08819 3.44974 9.46943 3.51579 9.71112C3.64183 10.1726 3.9401 10.3531 4.57903 10.3546C4.88912 10.3553 5.02894 10.3741 5.10125 10.4248L5.20005 10.4939V19.553V28.6121L5.3229 28.8473C5.41477 29.0231 5.49494 29.1084 5.64099 29.1857L5.83628 29.2889L11.7515 29.2896C18.0217 29.2902 17.872 29.2853 17.9022 29.4937C17.9113 29.5566 17.3035 30.3994 15.9479 32.2037C14.8658 33.6439 13.9449 34.8915 13.9013 34.9761C13.6291 35.5057 14.0506 36.1778 14.655 36.1778C15.1192 36.1778 15.077 36.2229 16.962 33.7098C18.7715 31.2973 18.8022 31.2633 18.9262 31.5354C18.9629 31.6158 18.9778 32.2094 18.9778 33.5817C18.9778 35.7486 18.9705 35.6949 19.3093 35.9925C19.5017 36.1613 19.6193 36.1946 19.9322 36.1686C20.2095 36.1456 20.4213 36.0082 20.5847 35.7454L20.6889 35.5778L20.7112 33.5556C20.7234 32.4433 20.7496 31.5084 20.7693 31.4778C20.8282 31.3868 20.9537 31.4142 21.0748 31.5445C21.1373 31.6117 21.9092 32.629 22.7901 33.8052C23.6711 34.9813 24.4555 35.989 24.5333 36.0444C24.8132 36.2437 25.2792 36.2172 25.5413 35.9871C25.8353 35.7289 25.9355 35.3617 25.8002 35.0379C25.7636 34.9503 24.8436 33.6928 23.7557 32.2434C21.7888 29.6227 21.6742 29.4501 21.8334 29.3471C21.864 29.3273 24.6021 29.3011 27.9181 29.2889L33.9474 29.2667L34.1181 29.1286C34.2121 29.0527 34.3289 28.9227 34.3778 28.8397C34.4888 28.6515 34.4808 29.3869 34.4861 18.8667C34.4887 13.7491 34.5065 10.4856 34.532 10.4452C34.5633 10.3956 34.7093 10.3721 35.1202 10.3502C35.4208 10.3342 35.6717 10.3189 35.6777 10.3161C35.6837 10.3133 35.7701 10.2376 35.8695 10.1478C36.1904 9.85783 36.1778 9.95339 36.1778 7.80512C36.1778 6.54765 36.1613 5.82876 36.1305 5.74734C36.0633 5.56947 35.8737 5.38005 35.6667 5.28427C35.496 5.20521 35.1985 5.20187 28.1778 5.20032C23.6507 5.1993 20.8413 5.18259 20.8001 5.1565C20.7501 5.12494 20.7266 4.98836 20.7065 4.61196C20.6891 4.28579 20.6548 4.06147 20.6088 3.9725C20.5093 3.78014 20.2551 3.56885 20.0568 3.51379C19.8635 3.4601 19.8037 3.45992 19.6289 3.51232ZM20.8255 3.94445C20.8447 3.98725 20.8719 4.24223 20.8858 4.51112C20.9092 4.96219 20.9181 4.99996 21.0001 4.99943C21.0822 4.9989 21.0887 4.97027 21.0853 4.62094C21.0821 4.28463 21.068 4.22232 20.9572 4.05485C20.8293 3.86165 20.7634 3.80636 20.8255 3.94445ZM36.3394 5.67779C36.3602 5.72059 36.3833 6.6405 36.3908 7.7221C36.4035 9.57094 36.3993 9.69992 36.3203 9.87765C36.1053 10.3616 35.8021 10.5363 35.1223 10.5681L34.6667 10.5894V19.6226C34.6667 29.5667 34.6889 28.7977 34.3933 29.1343C34.3161 29.2222 34.171 29.338 34.0709 29.3915C33.8945 29.4859 33.8399 29.4892 32.2889 29.4996C31.4089 29.5055 28.7233 29.5105 26.3209 29.5107L21.9527 29.5111L22.1373 29.7556C22.3159 29.9921 22.4319 30.1017 22.2915 29.9012C22.2534 29.8469 22.2223 29.7871 22.2223 29.7684C22.2223 29.7496 24.9189 29.7291 28.2147 29.7227L34.207 29.7111L34.4251 29.5763C34.5879 29.4757 34.6745 29.3799 34.7667 29.1985L34.8902 28.9556L34.9007 19.8889L34.9112 10.8222L35.4001 10.7974C36.0448 10.7647 36.2907 10.6416 36.5044 10.2445C36.5983 10.0699 36.6001 10.0298 36.6001 8.04445V6.02223L36.476 5.81112C36.3575 5.60956 36.2601 5.51441 36.3394 5.67779ZM5.24494 7.02139C5.21574 7.07596 5.2025 7.38379 5.21005 7.83121C5.22223 8.55121 5.22254 8.55316 5.33339 8.60921C5.48112 8.68387 34.1002 8.69401 34.2963 8.61943C34.3646 8.59347 34.4356 8.5485 34.454 8.51943C34.5054 8.43863 34.4957 7.11779 34.4429 7.0193C34.3976 6.93459 34.1866 6.93334 19.8445 6.93334C5.38477 6.93334 5.29179 6.93392 5.24494 7.02139ZM5.41121 7.14445C5.40219 7.16276 5.39601 7.45779 5.39748 7.80001L5.40005 8.42223H5.51117H5.62228V7.8889V7.35556L16.6667 7.34565C22.7412 7.34019 29.1862 7.33521 30.9889 7.33454L34.2667 7.33334V7.22223V7.11112H19.8471C11.9163 7.11112 5.42019 7.12614 5.41121 7.14445ZM7.01117 10.4036C6.93752 10.4465 6.93339 10.9029 6.93339 18.9975C6.93339 26.7517 6.93992 27.5485 7.0037 27.573C7.04237 27.5879 12.8284 27.6 19.8615 27.6C29.748 27.6 32.661 27.5879 32.7023 27.5467C32.7434 27.5056 32.7556 25.5462 32.7556 18.998C32.7556 10.8243 32.7525 10.4999 32.6743 10.4291C32.5991 10.361 31.6457 10.3557 19.841 10.3569C11.2617 10.3578 7.06348 10.3731 7.01117 10.4036ZM3.90863 10.5332C4.11619 10.7123 4.4237 10.8077 4.74076 10.7912C4.9653 10.7796 5.00183 10.7653 5.01339 10.6843C5.02605 10.5957 5.00277 10.5896 4.56894 10.5673C4.30601 10.5539 4.03552 10.5136 3.93339 10.4726L3.75561 10.4012L3.90863 10.5332ZM9.78894 10.567L7.11117 10.5785V18.9781V27.3778H7.22228H7.33339L7.3337 25.6111C7.33383 24.6395 7.3337 20.9094 7.33339 17.3222L7.33281 10.8H19.9553H32.5778V10.6889V10.5778L28.1223 10.5781C25.6717 10.5783 21.1467 10.5733 18.0667 10.567C14.9867 10.5607 11.2617 10.5607 9.78894 10.567ZM10.8429 13.9243C10.5466 14.0807 10.3869 14.3339 10.3825 14.6537C10.3784 14.9576 10.4702 15.1437 10.7264 15.3509L10.8971 15.4889L12.9041 15.5009C15.1579 15.5144 15.0753 15.5251 15.3532 15.1817C15.4657 15.0428 15.4887 14.9711 15.5019 14.7197C15.5157 14.4577 15.5034 14.4008 15.3993 14.2426C15.3343 14.1439 15.2094 14.0139 15.1217 13.9537L14.9622 13.8445L13.0017 13.8321L11.0412 13.8196L10.8429 13.9243ZM15.6731 14.3167C15.694 14.3747 15.7098 14.5422 15.7082 14.6889C15.7029 15.163 15.4184 15.5341 14.9572 15.6681C14.7491 15.7286 14.4479 15.7367 12.8352 15.7249C11.093 15.7121 10.9442 15.705 10.8001 15.6273L10.6445 15.5434L10.7334 15.6447C10.7823 15.7004 10.9223 15.7929 11.0445 15.8503C11.2667 15.9547 11.2669 15.9547 13.147 15.9551C14.4411 15.9554 15.092 15.9393 15.2347 15.9033C15.3827 15.8661 15.5017 15.7914 15.6507 15.6425C15.9733 15.3199 16.0425 14.922 15.8486 14.5055C15.7366 14.2649 15.6022 14.1203 15.6731 14.3167ZM11.0445 17.2854C10.7426 17.359 10.4797 17.6151 10.3992 17.9143C10.3101 18.2452 10.4677 18.6384 10.7677 18.8333L10.9556 18.9556L18.8824 18.9672C24.0299 18.9747 26.8667 18.9633 26.9732 18.9346C27.1555 18.8855 27.3918 18.6766 27.4985 18.4704C27.5879 18.2976 27.5883 17.9251 27.4993 17.7545C27.4213 17.6051 27.2321 17.4185 27.0667 17.3277C26.9739 17.2767 25.6593 17.2656 19.0667 17.2598C14.7278 17.2561 11.1178 17.2676 11.0445 17.2854ZM27.7119 17.7111C27.7748 17.8801 27.7878 18.2573 27.7362 18.4137C27.6455 18.6886 27.4345 18.9317 27.1863 19.0473L26.9556 19.1547L18.9875 19.1551C11.9739 19.1555 11.0001 19.1475 10.8585 19.0883C10.77 19.0513 10.6892 19.0294 10.679 19.0396C10.6429 19.0757 11.0489 19.3243 11.2231 19.3726C11.3492 19.4076 13.6492 19.4218 19.2253 19.422C27.9852 19.4223 27.3542 19.4459 27.6953 19.1048C27.9147 18.8853 28.0001 18.6912 27.9998 18.4125C27.9995 18.1284 27.9332 17.9169 27.7939 17.7556C27.7145 17.6637 27.6891 17.6498 27.7119 17.7111ZM10.8413 20.814C10.5466 20.9697 10.3868 21.2233 10.3825 21.5425C10.3784 21.8465 10.4702 22.0327 10.7264 22.2397L10.8972 22.3778L16.3387 22.3894C21.298 22.4 21.7929 22.3946 21.9235 22.3285C22.2422 22.1671 22.4001 21.91 22.4001 21.5523C22.4001 21.2654 22.2715 21.024 22.0293 20.8562L21.8521 20.7333L16.4452 20.7217L11.0382 20.7101L10.8413 20.814ZM22.551 21.1778C22.6725 21.6673 22.6087 21.9613 22.3157 22.2621C21.9361 22.6517 22.385 22.6256 16.3082 22.612C11.2641 22.6007 10.9466 22.5954 10.8001 22.5204L10.6445 22.4408L10.8122 22.5927C10.9045 22.6762 11.0645 22.7678 11.1678 22.7962C11.3067 22.8343 12.7628 22.8444 16.7629 22.835L22.1702 22.8222L22.3617 22.6877C22.7562 22.4104 22.9254 21.9702 22.8055 21.5333C22.7548 21.3486 22.5078 21.0035 22.551 21.1778ZM5.51117 29.38C5.51117 29.3981 5.6157 29.4801 5.74348 29.5621L5.97579 29.7111L11.7768 29.7212L17.5778 29.7313L17.6577 29.6212L17.7375 29.5111L11.8577 29.5097C6.29672 29.5083 5.96517 29.5038 5.7445 29.4276C5.61614 29.3833 5.51117 29.3618 5.51117 29.38ZM22.3556 30.0613C22.3556 30.0705 22.3906 30.1055 22.4334 30.139C22.5039 30.1943 22.5054 30.1927 22.4502 30.1222C22.3921 30.0482 22.3556 30.0247 22.3556 30.0613ZM22.5973 30.3702C22.6657 30.4599 22.7307 30.5333 22.7417 30.5333C22.7725 30.5333 22.5801 30.2733 22.5233 30.2382C22.4955 30.221 22.5288 30.2805 22.5973 30.3702ZM22.9301 30.8111C23.0356 30.9517 23.1307 31.0667 23.1415 31.0667C23.1718 31.0667 22.8794 30.6695 22.8046 30.6091C22.7681 30.5797 22.8246 30.6705 22.9301 30.8111ZM23.3078 31.3221C23.3997 31.4505 23.4969 31.5689 23.5236 31.5855C23.5868 31.6245 23.2914 31.2128 23.2058 31.1425C23.17 31.113 23.2158 31.1939 23.3078 31.3221ZM17.0889 33.8545C16.0852 35.1997 15.3787 36.1063 15.2756 36.1815C14.9673 36.4064 14.539 36.4316 14.1778 36.2463L14.0223 36.1665L14.1298 36.283C14.189 36.3471 14.3379 36.4497 14.4608 36.5109C14.8753 36.7175 15.368 36.6339 15.6721 36.3054C15.7485 36.223 16.4835 35.2573 17.3055 34.1594L18.8001 32.1633V31.9038C18.8001 31.7612 18.7851 31.6458 18.7667 31.6475C18.7484 31.6492 17.9934 32.6424 17.0889 33.8545ZM20.8909 33.5778C20.8881 35.53 20.8879 35.5337 20.7845 35.7559C20.6512 36.042 20.4219 36.2413 20.1141 36.3382C19.8895 36.4091 19.8501 36.4098 19.6347 36.3471C19.5057 36.3095 19.3601 36.2634 19.3112 36.2445C19.2574 36.2239 19.2838 36.2648 19.3778 36.348C19.8845 36.7963 20.6624 36.68 20.9841 36.1077L21.111 35.8821L21.1133 33.8855L21.1155 31.8889L21.0046 31.7556L20.8937 31.6222L20.8909 33.5778ZM23.712 31.862C23.8016 31.9867 23.8945 32.1009 23.9185 32.1157C23.9425 32.1305 23.8888 32.0406 23.7992 31.9158C23.7096 31.7911 23.6167 31.6769 23.5927 31.6621C23.5687 31.6473 23.6224 31.7372 23.712 31.862ZM24.0639 32.3257C24.1324 32.4155 24.1974 32.4889 24.2084 32.4889C24.2392 32.4889 24.0468 32.2289 23.9899 32.1937C23.9622 32.1766 23.9955 32.236 24.0639 32.3257ZM24.538 32.9556C24.7125 33.1878 24.8653 33.3778 24.8776 33.3778C24.8898 33.3778 24.8806 33.3528 24.8572 33.3222C24.8337 33.2917 24.6904 33.1017 24.5386 32.9C24.3869 32.6983 24.2533 32.5333 24.2417 32.5333C24.2301 32.5333 24.3634 32.7233 24.538 32.9556ZM24.9662 33.5333C25.019 33.6067 25.1146 33.7267 25.1787 33.8C25.2841 33.9206 25.2826 33.9141 25.1625 33.7308C25.0895 33.6194 24.9939 33.4994 24.95 33.4641C24.8886 33.4148 24.8924 33.4308 24.9662 33.5333ZM25.4411 34.1666C25.533 34.2949 25.6302 34.4134 25.6569 34.4299C25.7201 34.469 25.4247 34.0572 25.3391 33.9869C25.3033 33.9574 25.3492 34.0383 25.4411 34.1666ZM25.7961 34.6333C26.0288 34.9421 26.0976 35.2958 25.9961 35.6614C25.9292 35.9023 25.604 36.2381 25.3695 36.3084C25.1134 36.3851 24.7434 36.3743 24.5678 36.2849L24.4223 36.2109L24.5297 36.3273C24.9261 36.7569 25.7362 36.7021 26.0838 36.2222C26.2657 35.9712 26.343 35.6171 26.2707 35.3668C26.2163 35.1787 25.8673 34.6242 25.7382 34.5209C25.701 34.4911 25.727 34.5417 25.7961 34.6333Z" fill="#C5122D"/>
</svg>
