<svg width="40" height="40" viewBox="0 0 40 40" fill="none" xmlns="http://www.w3.org/2000/svg">
<path fill-rule="evenodd" clip-rule="evenodd" d="M11.3181 3.03282C9.73795 3.22228 8.21287 4.42833 7.60591 5.96843C7.28957 6.77115 7.22493 7.24056 7.22493 8.73508V9.81752H6.39055C5.47593 9.81752 5.39753 9.83571 5.18487 10.097C4.87761 10.4745 4.9736 11.0635 5.38093 11.3002C5.5367 11.3907 5.61825 11.3987 6.38767 11.3987H7.22493V15.3051V19.2115H6.39055C5.47593 19.2115 5.39753 19.2296 5.18487 19.491C4.93838 19.7938 4.93838 20.2102 5.18487 20.5131C5.39753 20.7744 5.47593 20.7926 6.39055 20.7926H7.22493V24.699V28.6054H6.38767C5.61825 28.6054 5.5367 28.6134 5.38093 28.7039C4.9736 28.9406 4.87761 29.5295 5.18487 29.9071C5.39753 30.1684 5.47593 30.1866 6.39055 30.1866H7.22493V31.269C7.22493 31.8644 7.24602 32.5288 7.27175 32.7455C7.47839 34.4844 8.59497 35.9875 10.1761 36.6552C11.0595 37.0282 10.149 36.9995 21.1012 36.9995C28.9388 36.9995 30.9195 36.9875 31.1542 36.9389C33.0661 36.5429 34.5341 35.0382 34.9204 33.0784C34.9954 32.6979 35 31.9419 35 20.002C35 8.06216 34.9954 7.30618 34.9204 6.92573C34.5855 5.22701 33.3979 3.81554 31.8289 3.25158C31.1089 2.99278 31.8371 3.01013 21.3261 3.00087C16.0072 2.99622 11.5036 3.01059 11.3181 3.03282ZM11.4305 4.63886C10.1248 4.92459 9.1995 5.81794 8.88887 7.09282C8.81105 7.41212 8.79922 7.61613 8.79922 8.6391V9.81752L10.0024 9.81827C11.1672 9.81901 11.2114 9.82241 11.3847 9.92388C11.6501 10.0793 11.7773 10.334 11.7524 10.6603C11.7302 10.9521 11.6441 11.1184 11.4359 11.272C11.3011 11.3713 11.2466 11.3764 10.0587 11.3987L8.82171 11.4219L8.8102 15.3167L8.79873 19.2115H9.99537C11.0115 19.2115 11.2155 19.223 11.3476 19.2878C11.8545 19.5365 11.9086 20.3173 11.4428 20.6608C11.2983 20.7674 11.2728 20.7696 10.0474 20.7831L8.79922 20.7968V24.7011V28.6054H10.0294H11.2596L11.4387 28.7395C11.8973 29.083 11.8686 29.7969 11.3847 30.0802C11.2114 30.1817 11.1672 30.1851 10.0024 30.1858L8.79922 30.1866V31.3516C8.79922 32.2574 8.81546 32.5912 8.87214 32.8514C9.08174 33.8133 9.71654 34.6392 10.5759 35.0682C11.2872 35.4232 10.4793 35.3993 21.2586 35.3848C30.5144 35.3723 30.9169 35.3683 31.1542 35.2857C31.7392 35.0819 32.062 34.8773 32.4843 34.4429C32.9617 33.9517 33.2126 33.502 33.3572 32.8781C33.4465 32.493 33.4476 32.3456 33.4471 20.0253C33.4467 9.21724 33.4378 7.5188 33.3803 7.23652C33.2206 6.45319 32.8487 5.82022 32.2581 5.32615C31.9475 5.06638 31.6801 4.91496 31.2617 4.762L30.9068 4.63226L21.2137 4.6257C15.8824 4.62212 11.48 4.62803 11.4305 4.63886ZM20.5975 10.4249C19.1818 10.6155 17.8698 11.6351 17.3288 12.9651C17.0301 13.6994 17.0079 13.8609 17.0097 15.2818C17.0113 16.5651 17.0131 16.5899 17.1336 16.9924C17.6111 18.5874 18.7572 19.6919 20.2833 20.0276C20.7837 20.1377 21.6142 20.1167 22.1319 19.981C23.6115 19.5929 24.7291 18.4273 25.1332 16.8506C25.2498 16.3954 25.3005 14.9056 25.2226 14.2224C25.104 13.1822 24.7185 12.3608 24.0052 11.6284C23.1136 10.7129 21.8289 10.2592 20.5975 10.4249ZM20.5615 12.0685C19.7071 12.2715 19.0217 12.9037 18.6852 13.7991C18.5879 14.058 18.5823 14.1351 18.5823 15.2353C18.5823 16.3286 18.5886 16.4164 18.6861 16.7083C18.8108 17.0814 19.148 17.5922 19.445 17.8579C20.3093 18.631 21.5796 18.7074 22.539 18.044C23.0763 17.6724 23.4545 17.113 23.6191 16.4463C23.7144 16.0606 23.7139 14.473 23.6184 14.0542C23.4214 13.1901 22.7561 12.4469 21.9035 12.1386C21.5634 12.0156 20.9245 11.9823 20.5615 12.0685ZM18.8403 21.5377C17.202 21.7117 15.7565 22.5468 14.7769 23.8852C14.0481 24.8808 13.6244 26.1048 13.5987 27.289C13.588 27.7825 13.669 27.9927 13.9419 28.1794L14.1228 28.3031L21.008 28.3164C26.1463 28.3263 27.9417 28.3159 28.0844 28.2755C28.2979 28.215 28.5688 27.9431 28.6181 27.7399C28.668 27.5347 28.6028 26.657 28.5039 26.2007C28.071 24.2037 26.6023 22.4988 24.7479 21.8409C23.9145 21.5452 23.7354 21.5278 21.3711 21.5123C20.1836 21.5046 19.0448 21.516 18.8403 21.5377ZM18.6948 23.1846C17.3385 23.4461 16.2124 24.3067 15.6109 25.5417C15.4587 25.8543 15.2313 26.509 15.2313 26.6349C15.2313 26.6887 16.1596 26.6987 21.1237 26.6987C24.3645 26.6987 27.0161 26.693 27.0161 26.6862C27.0161 26.5947 26.8047 25.9325 26.7003 25.6968C26.4258 25.077 25.8587 24.3591 25.3293 23.9609C24.8418 23.5942 24.2023 23.3178 23.5414 23.1882C23.0773 23.0972 19.1634 23.0943 18.6948 23.1846Z" fill="#C5122D"/>
</svg>
