<svg width="40" height="40" viewBox="0 0 40 40" fill="none" xmlns="http://www.w3.org/2000/svg">
<g clip-path="url(#clip0_11290_1411)">
<path fill-rule="evenodd" clip-rule="evenodd" d="M25.7883 0.088664C25.4966 0.15062 25.0811 0.352708 24.8056 0.566531C24.4615 0.83382 23.807 1.47457 19.6222 5.6416C17.6178 7.63755 13.4478 11.7788 10.3556 14.8443C7.26333 17.9099 3.75062 21.399 2.54951 22.5979C0.424795 24.7188 0.361061 24.7874 0.19395 25.1333L0.0222168 25.4889V26.1134V26.738L0.192839 27.0912C0.355417 27.4279 0.429372 27.5098 1.77062 28.839C3.17004 30.2259 3.37622 30.3968 3.65266 30.399C3.83444 30.4005 3.97084 30.3353 4.44088 30.0224C4.88613 29.726 5.32862 29.5198 5.79737 29.3903C6.17911 29.2848 7.07355 29.288 7.48888 29.3963C9.24937 29.8552 10.3878 31.3867 10.2981 33.1755C10.2582 33.9716 10.032 34.5931 9.55062 35.2285C9.182 35.7152 9.13022 35.9132 9.28506 36.2444C9.41017 36.5122 12.13 39.2005 12.4241 39.3471C12.8411 39.555 13.128 39.6129 13.6301 39.5905C14.062 39.5713 14.1113 39.5589 14.4751 39.3787L14.8615 39.1872L24.368 29.6936C29.9113 24.1578 33.9396 20.1683 34.0307 20.1238C34.2571 20.0136 34.2969 19.9717 34.4179 19.7177C34.5057 19.5332 34.9901 19.0271 36.9223 17.1012C38.5803 15.4488 39.354 14.6472 39.4352 14.498C39.6781 14.0517 39.7517 13.4622 39.6243 12.9836C39.4696 12.4024 39.4148 12.3339 37.9179 10.8495C37.0025 9.94178 36.449 9.42591 36.3333 9.37266C35.9885 9.21395 35.8066 9.26191 35.2293 9.66364C34.5462 10.1391 33.8428 10.3397 33.0023 10.2988C31.571 10.2293 30.409 9.45533 29.7973 8.16404C29.5531 7.64853 29.4592 7.21551 29.4583 6.6C29.4571 5.75826 29.6605 5.13942 30.1948 4.3592C30.4235 4.02538 30.4444 3.97422 30.4444 3.75071C30.4444 3.61649 30.4158 3.45271 30.3807 3.38666C30.2898 3.2156 27.5692 0.519953 27.3556 0.389286C26.914 0.119286 26.2468 -0.00871381 25.7883 0.088664ZM25.9556 1.69622C25.8346 1.73026 25.3211 2.218 23.646 3.88982L21.492 6.03964L21.5955 6.22378C21.8051 6.59662 21.652 7.12093 21.2755 7.31951C21.0638 7.4312 20.7273 7.41809 20.4985 7.28924L20.3082 7.182L16.8542 10.6244C11.6595 15.8015 5.39257 22.0362 3.45182 23.9578C2.50257 24.8976 1.69755 25.7207 1.66293 25.7867C1.58177 25.9415 1.58217 26.2819 1.66368 26.4356C1.69875 26.5016 2.19373 27.019 2.76368 27.5855L3.79999 28.6155L4.11111 28.4351C4.55017 28.1806 5.16937 27.9278 5.62924 27.8152C6.16422 27.6843 7.08831 27.6835 7.66666 27.8136C10.0758 28.3552 11.7418 30.2976 11.8927 32.7405C11.9504 33.6749 11.652 34.7524 11.0881 35.6457L10.9854 35.8083L12.0594 36.8788C12.9588 37.7752 13.1624 37.9568 13.3125 37.9959C13.7253 38.1036 13.0019 38.7911 23.1621 28.6346L32.4797 19.3204L32.3956 19.1824C32.2725 18.9805 32.2807 18.5916 32.4122 18.3965C32.635 18.0659 32.9971 17.9345 33.3328 18.0626C33.4431 18.1046 33.5571 18.1427 33.586 18.1473C33.615 18.1518 34.64 17.1568 35.8638 15.936C38.0335 13.7718 38.0889 13.7123 38.0889 13.545C38.0889 13.4506 38.0602 13.3194 38.0252 13.2533C37.9901 13.1873 37.4935 12.6668 36.9216 12.0968L35.8816 11.0601L35.6459 11.1991C35.2793 11.4153 34.6342 11.6767 34.1974 11.786C33.8658 11.869 33.686 11.8848 33.1111 11.8813C32.4923 11.8775 32.3681 11.8631 31.8903 11.7392C29.9867 11.2455 28.5076 9.772 28.0162 7.87973C27.8786 7.35004 27.8276 6.42475 27.9076 5.91111C27.979 5.45333 28.2292 4.72626 28.4774 4.25546L28.6844 3.86289L27.6238 2.80155C26.7007 1.87786 26.5384 1.734 26.373 1.69231C26.1562 1.63773 26.1637 1.63764 25.9556 1.69622ZM22.6787 8.23622C22.4085 8.41778 22.4018 8.42698 22.4004 8.62222C22.3996 8.73222 22.3872 8.894 22.3726 8.98169C22.3469 9.13706 22.3625 9.1584 22.9823 9.81613L23.6184 10.4912L23.9721 10.5998L24.3258 10.7084L24.601 10.512C24.8563 10.3299 24.8783 10.3006 24.9048 10.1072C24.9488 9.78591 24.9364 9.63444 24.8537 9.48484C24.812 9.40933 24.5247 9.10378 24.2154 8.80591C23.6918 8.3016 23.6308 8.25671 23.3298 8.15435C23.1521 8.09391 22.9952 8.04573 22.9811 8.04733C22.9671 8.04893 22.831 8.13391 22.6787 8.23622ZM26.0111 11.5817L25.7333 11.783V12.1515C25.7333 12.6001 25.7562 12.6365 26.4953 13.3624C26.9712 13.83 27.0183 13.864 27.3213 13.9598L27.6427 14.0614L27.9547 13.8482L28.2667 13.635V13.2686C28.2667 12.8246 28.2425 12.7859 27.527 12.0788C27.0776 11.6348 27.0217 11.5943 26.7144 11.4899C26.5329 11.4282 26.3629 11.3784 26.3367 11.3791C26.3104 11.3798 26.1639 11.471 26.0111 11.5817ZM29.3908 14.8978C29.2399 15.0014 29.1055 15.1267 29.0921 15.1764C29.0788 15.226 29.0676 15.4048 29.0673 15.5735L29.0667 15.8804L29.7222 16.536C30.3576 17.1715 30.3874 17.1948 30.69 17.2903L31.0022 17.3888L31.2977 17.1822L31.5933 16.9756L31.6078 16.61L31.6222 16.2444L30.9839 15.5908C30.3766 14.969 30.3312 14.9325 30.0506 14.8399C29.8883 14.7864 29.7352 14.7351 29.7104 14.726C29.6855 14.717 29.5416 14.7943 29.3908 14.8978ZM19.9111 16.6846L18.1111 18.2545L17.8889 18.1556C17.7667 18.1012 16.7995 17.6628 15.7396 17.1813C14.6797 16.6999 13.8034 16.3151 13.7922 16.3263C13.7811 16.3374 14.1833 17.3144 14.686 18.4973C15.1887 19.6802 15.6 20.6681 15.6 20.6927C15.6 20.7172 14.8824 21.5264 14.0054 22.4908C12.7191 23.9054 12.4291 24.2466 12.5054 24.2556C12.5574 24.2617 13.6159 24.1807 14.8574 24.0756C16.4356 23.9419 17.1267 23.8985 17.154 23.9315C17.1756 23.9575 17.5315 24.5785 17.9448 25.3116C19.3114 27.7348 19.4887 28.0441 19.5111 28.0442C19.5233 28.0443 19.7616 27.0141 20.0405 25.755C20.3195 24.4958 20.5695 23.4491 20.5961 23.4289C20.6227 23.4088 21.6244 23.197 22.8222 22.9584C25.5026 22.4244 25.2205 22.4893 25.1482 22.4225C25.1156 22.3924 24.1939 21.8342 23.1 21.1821C22.0061 20.53 21.1111 19.9823 21.111 19.9649C21.1109 19.9362 21.204 19.2255 21.6032 16.2064C21.6771 15.6476 21.7316 15.1734 21.7243 15.1526C21.7171 15.1317 20.9011 15.8211 19.9111 16.6846ZM19.3746 19.305C19.2175 19.4355 18.9414 19.6752 18.7612 19.8378C18.5809 20.0004 18.4076 20.1333 18.3762 20.1333C18.3094 20.1333 17.4172 19.7555 17.0778 19.5834C16.9495 19.5184 16.8444 19.4826 16.8444 19.504C16.8444 19.5473 17.3524 20.8028 17.4242 20.937C17.4751 21.032 17.3867 21.1423 16.6698 21.8778L16.2908 22.2667H16.4487C16.5357 22.2667 16.8152 22.2477 17.07 22.2245C17.3248 22.2013 17.6391 22.1742 17.7684 22.1642L18.0035 22.146L18.1855 22.4619C18.6307 23.2346 18.8554 23.6 18.8855 23.6C18.9184 23.6 18.9728 23.3498 19.1106 22.5643C19.1526 22.3246 19.2049 22.1117 19.2268 22.0911C19.2597 22.0602 20.2003 21.8316 20.7959 21.7097L20.9474 21.6788L20.5959 21.4948C20.0132 21.19 19.4667 20.8131 19.4667 20.7162C19.4667 20.6691 19.5168 20.2855 19.5782 19.8638C19.6396 19.4421 19.6831 19.0905 19.6751 19.0824C19.667 19.0744 19.5318 19.1745 19.3746 19.305Z" fill="#C5122D"/>
</g>
<defs>
<clipPath id="clip0_11290_1411">
<rect width="40" height="40" fill="white" transform="translate(-0.0649414 -0.153809)"/>
</clipPath>
</defs>
</svg>
