<svg width="40" height="40" viewBox="0 0 40 40" fill="none" xmlns="http://www.w3.org/2000/svg">
<g clip-path="url(#clip0_459_117)">
<path fill-rule="evenodd" clip-rule="evenodd" d="M17.4222 0.186455C13.3006 0.695967 9.38468 2.58894 6.26201 5.5813C3.10592 8.60565 1.27855 11.9545 0.334012 16.4444C-0.0325661 18.187 0.0527673 22.3737 0.494189 24.3004C1.3605 28.0825 2.94361 30.9929 5.68139 33.8375C10.0508 38.377 16.0414 40.5493 22.2122 39.832C29.0377 39.0385 34.8442 34.9785 37.8627 28.8889C38.872 26.8528 39.595 24.5049 39.7603 22.7269C39.8229 22.0521 39.9425 21.4577 40.0261 21.406C40.2245 21.2833 40.224 18.4889 40.0256 18.4889C39.9418 18.4889 39.8222 17.9392 39.7598 17.2673C39.6026 15.5774 38.8851 13.1911 37.9575 11.2736C35.8649 6.94823 31.7216 3.10806 27.3132 1.40797C24.4259 0.294544 20.4848 -0.192211 17.4222 0.186455ZM18.2222 2.67001C7.64032 3.79979 0.54219 13.9783 3.12868 24.3134C3.87214 27.2841 5.44477 30.0195 7.7125 32.2874C10.0544 34.6293 12.6019 36.0874 15.8202 36.9281C18.1552 37.5381 21.5907 37.5729 23.8768 37.0097C30.4986 35.3785 35.3847 30.4919 37.0083 23.8768C37.5465 21.6849 37.5465 18.315 37.0083 16.1232C35.4396 9.73188 30.7429 4.8805 24.4437 3.14468C23.4732 2.8773 20.3825 2.46486 19.7333 2.51606C19.5866 2.52761 18.9066 2.59694 18.2222 2.67001ZM12.4343 10.4266C12.3182 10.7319 12.2672 12.2282 12.3009 14.337C12.3507 17.4569 12.3873 17.7962 12.7219 18.2542C12.9235 18.5299 13.3502 18.8755 13.6702 19.0222L14.2519 19.2889L14.1166 24C14.0421 26.5911 13.9872 28.8958 13.9946 29.1214C14.0284 30.1516 15.4339 30.6105 16.2021 29.8423C16.5785 29.4659 16.5809 29.4138 16.4601 24.3756L16.3383 19.2889L16.9137 19.0222C17.6289 18.6908 18.1081 18.0496 18.3187 17.1418C18.499 16.3642 18.55 10.8551 18.3809 10.4145C18.2387 10.0437 17.3168 10.0437 17.1745 10.4145C17.1152 10.5692 17.0666 11.6394 17.0666 12.7927C17.0666 14.9788 16.921 15.4265 16.2892 15.184C15.9369 15.0489 15.9482 15.1479 15.9847 12.5333C16.001 11.36 15.9422 10.2929 15.8538 10.1623C15.7655 10.0314 15.5022 9.95143 15.2688 9.9845C14.848 10.0439 14.8441 10.0647 14.795 12.4711C14.7569 14.3459 14.6862 14.9473 14.4839 15.1152C14.2777 15.2864 14.1667 15.2864 13.9605 15.1152C13.7582 14.9473 13.6874 14.3459 13.6494 12.4711L13.6 10.0444L13.1111 9.98823C12.7155 9.94272 12.5866 10.0261 12.4343 10.4266ZM22.8071 10.3049C21.558 11.0663 20.8058 12.9456 20.8021 15.3129C20.7993 17.0995 21.2021 18.3045 22.1571 19.3667L22.9162 20.211L22.9692 24.8426C23.0179 29.1054 23.0492 29.5041 23.3609 29.8483C23.9873 30.5399 25.139 30.2531 25.4649 29.3244C25.518 29.1729 25.4867 27.0529 25.3953 24.6133C25.2421 20.5242 25.2528 20.1639 25.5308 20C27.1914 19.0217 27.7987 17.6256 27.6963 15.0222C27.5987 12.5449 26.8417 10.9665 25.3866 10.2064C24.699 9.84708 23.4814 9.89365 22.8071 10.3049ZM0.0620117 20.0889C0.0620117 20.92 0.0927673 21.2599 0.130101 20.8444C0.167612 20.4288 0.167612 19.7488 0.130101 19.3333C0.0927673 18.9177 0.0620117 19.2577 0.0620117 20.0889Z" fill="#C5122D"/>
</g>
<defs>
<clipPath id="clip0_459_117">
<rect width="40" height="40" fill="white"/>
</clipPath>
</defs>
</svg>
