<svg width="40" height="40" viewBox="0 0 40 40" fill="none" xmlns="http://www.w3.org/2000/svg">
<path fill-rule="evenodd" clip-rule="evenodd" d="M3.31508 6.57135C2.9759 6.76552 3.00045 5.81952 3.00045 18.6945C3.00045 31.7615 2.97204 30.7614 3.36499 31.5296C3.53094 31.854 3.65466 32.0103 4.00969 32.3439C4.51212 32.816 4.94619 33.0553 5.57279 33.2058C5.95822 33.2984 6.19752 33.3 20.0023 33.3C33.8071 33.3 34.0464 33.2984 34.4319 33.2058C35.0518 33.057 35.4921 32.815 35.9935 32.3477C36.3509 32.0145 36.4692 31.8652 36.6384 31.5339C37.0341 30.759 37.0085 31.5787 36.9928 20.2214L36.9788 10.0784L36.8608 9.80408C36.7252 9.48872 36.3281 9.05594 36.0173 8.88491C35.5484 8.62683 35.5091 8.62277 33.4654 8.62138L31.5656 8.62005V7.80517C31.5656 6.8932 31.5218 6.72638 31.2393 6.56466C31.0872 6.47751 30.695 6.47498 17.283 6.47498C3.5314 6.47498 3.48271 6.47536 3.31508 6.57135ZM4.3851 19.1833L4.39822 30.6031L4.55954 30.923C4.75747 31.3152 5.07478 31.6213 5.49955 31.8295L5.82139 31.9873L18.3408 31.9997L30.8603 32.012L30.7268 31.8087C30.5539 31.5457 30.4102 31.2413 30.3039 30.9134C30.2256 30.6716 30.2178 29.7484 30.2053 19.2071L30.1919 7.7634H17.2819H4.37199L4.3851 19.1833ZM7.01945 9.94704C6.76633 10.0685 6.64313 10.2503 6.64313 10.5024C6.64313 10.7504 6.75027 10.9272 6.98047 11.059C7.14007 11.1504 7.32167 11.152 17.283 11.152C27.2444 11.152 27.426 11.1504 27.5856 11.059C28.0171 10.8119 28.0423 10.27 27.6355 9.98723L27.492 9.88747L17.3429 9.87544C7.75712 9.86404 7.18408 9.868 7.01945 9.94704ZM31.5656 19.6725V29.4814H32.2518H32.938V19.9183V10.3552L33.0651 10.1307C33.1349 10.0073 33.1921 9.89668 33.1921 9.88494C33.1921 9.8732 32.8262 9.86361 32.3789 9.86361H31.5656V19.6725ZM34.6697 9.94723C34.5739 9.9931 34.4481 10.0913 34.3902 10.1654L34.2849 10.3002L34.2595 20.3323C34.2387 28.5613 34.222 30.3845 34.1664 30.4759C34.1292 30.5372 34.0034 30.628 33.8869 30.6777C33.7048 30.7553 33.5479 30.7682 32.7728 30.7691C32.2766 30.7697 31.8708 30.7863 31.8711 30.806C31.8724 30.9042 32.2116 31.3794 32.409 31.5596C32.7871 31.9046 33.0274 31.9874 33.6496 31.987C34.1498 31.9866 34.2027 31.977 34.4928 31.835C34.9197 31.626 35.2499 31.31 35.4445 30.9241L35.6064 30.6031L35.6193 20.4601C35.6317 10.5988 35.6294 10.313 35.5363 10.17C35.4331 10.0116 35.1563 9.86356 34.9634 9.8637C34.8978 9.8637 34.7656 9.90132 34.6697 9.94723ZM17.7345 13.1992C17.5617 13.3615 17.5372 13.4122 17.5372 13.6073C17.5372 13.7298 17.5719 13.8931 17.6143 13.9701C17.7789 14.269 17.5269 14.2549 22.7216 14.2549C27.8317 14.2549 27.6637 14.2631 27.8085 14.0091C27.9964 13.6793 27.9505 13.3888 27.6743 13.161L27.4959 13.0139H22.7139H17.9319L17.7345 13.1992ZM6.98047 13.4887C6.89116 13.5401 6.7768 13.6413 6.72633 13.7136C6.63911 13.8386 6.63464 14.1516 6.63464 20.1021C6.63464 26.0526 6.63911 26.3656 6.72633 26.4906C6.7768 26.5629 6.89116 26.6641 6.98047 26.7155C7.13885 26.8066 7.25082 26.8087 11.4465 26.7968L15.75 26.7846L15.8878 26.6652C16.1793 26.4125 16.1648 26.7557 16.1648 20.1021C16.1648 13.4485 16.1793 13.7917 15.8878 13.539L15.75 13.4196L11.4465 13.4074C7.25082 13.3955 7.13885 13.3976 6.98047 13.4887ZM7.98157 20.1021V25.5197H11.387H14.7925V20.1021V14.6845H11.387H7.98157V20.1021ZM17.9131 16.1847C17.6787 16.2805 17.5287 16.5066 17.5287 16.7642C17.5287 17.0148 17.6283 17.1806 17.8576 17.3119C18.0155 17.4023 18.1509 17.4049 22.7216 17.4049C27.2923 17.4049 27.4277 17.4023 27.5856 17.3119C27.8203 17.1775 27.9226 17.0052 27.9185 16.7509C27.9144 16.4935 27.7974 16.3202 27.5466 16.2001C27.3844 16.1224 27.0512 16.1168 22.7216 16.1184C18.9304 16.1199 18.0417 16.1321 17.9131 16.1847ZM17.8357 19.3472C17.4317 19.5826 17.4366 20.2036 17.8442 20.4297C17.9718 20.5005 18.4281 20.5078 22.7234 20.5078C27.3802 20.5078 27.4649 20.5062 27.6272 20.4119C28.0176 20.1853 28.0176 19.5893 27.6272 19.3627C27.4648 19.2684 27.3815 19.2668 22.7156 19.2681C18.4177 19.2692 17.9566 19.2767 17.8357 19.3472ZM17.9141 22.4372C17.6583 22.5418 17.5372 22.727 17.5372 23.0137C17.5372 23.1976 17.5663 23.2981 17.6474 23.3949C17.8756 23.6674 17.6962 23.6581 22.7327 23.658C27.0494 23.658 27.3845 23.6522 27.5466 23.5745C27.7993 23.4535 27.9144 23.2815 27.9186 23.0183C27.9229 22.7543 27.8065 22.5774 27.5466 22.453C27.3844 22.3753 27.0512 22.3697 22.7216 22.3713C18.944 22.3728 18.0414 22.3851 17.9141 22.4372ZM17.8201 25.6126C17.6159 25.739 17.5411 25.8841 17.539 26.1578C17.5374 26.365 17.5585 26.4101 17.7345 26.5754L17.9319 26.7607H22.6951C27.0133 26.7607 27.4715 26.7534 27.599 26.6826C27.8993 26.5161 28.006 26.1261 27.8359 25.8171C27.6632 25.5036 27.9402 25.5196 22.7114 25.52C18.1095 25.5203 17.9648 25.523 17.8201 25.6126ZM6.98047 28.7156C6.75027 28.8474 6.64313 29.0242 6.64313 29.2722C6.64313 29.5243 6.76638 29.7062 7.01945 29.8274C7.18363 29.906 7.77796 29.9109 17.283 29.9109C26.7881 29.9109 27.3825 29.906 27.5466 29.8274C27.7974 29.7073 27.9144 29.534 27.9185 29.2766C27.9226 29.0223 27.8203 28.85 27.5856 28.7156C27.426 28.6243 27.2444 28.6226 17.283 28.6226C7.32167 28.6226 7.14007 28.6243 6.98047 28.7156Z" fill="#C5122D"/>
</svg>
