<svg width="40" height="44" viewBox="0 0 40 44" fill="none" xmlns="http://www.w3.org/2000/svg">
<path fill-rule="evenodd" clip-rule="evenodd" d="M18.3037 0.318064C16.3032 1.38383 15.4906 3.67809 16.3985 5.69775C17.383 7.88813 20.2583 8.66089 22.2223 7.26268C24.711 5.4912 24.4445 1.77411 21.728 0.366298C20.8257 -0.10144 19.1355 -0.125257 18.3037 0.318064ZM19.0959 1.96565C17.5111 2.66216 17.446 5.0793 18.9904 5.88628C19.761 6.28897 20.3527 6.26816 21.0923 5.81263C22.2691 5.08731 22.4729 3.33684 21.489 2.40277C20.9738 1.91382 19.7307 1.68665 19.0959 1.96565ZM12.9853 4.47927C11.0287 5.34249 9.52194 6.26175 8.37879 7.2897L7.48756 8.09128L8.18549 8.64488L8.88323 9.19868L10.0286 8.32124C11.3622 7.2995 13.1815 6.28777 14.287 5.95293C14.9323 5.75759 15.045 5.64791 14.9533 5.30346C14.8929 5.0755 14.842 4.64118 14.8406 4.33857C14.839 4.03595 14.7711 3.78917 14.6893 3.79057C14.6075 3.79197 13.8408 4.1018 12.9853 4.47927ZM25.1337 4.32516C25.1323 4.63518 25.0772 5.09151 25.0117 5.33929C24.9289 5.65151 24.9784 5.78961 25.1733 5.78961C25.6906 5.78961 28.5881 7.32692 29.8459 8.2686L31.0895 9.19988L31.7688 8.65208C32.4172 8.1293 32.4326 8.08727 32.1096 7.72381C31.1576 6.65304 27.399 4.44945 25.5821 3.89665C25.1941 3.77876 25.1361 3.834 25.1337 4.32516ZM3.24809 9.05997C2.4547 9.42344 1.47059 10.5805 1.16896 11.5041C0.852471 12.4728 1.03963 14.0316 1.57793 14.9118C2.57016 16.5342 5.08838 17.1917 6.81677 16.2794C9.36093 14.9366 9.61542 11.009 7.2602 9.43405C6.30916 8.79779 4.24112 8.60505 3.24809 9.05997ZM33.0918 9.21029C31.9098 9.81672 31.2218 10.9225 31.117 12.384C30.8724 15.8028 34.1905 17.8415 37.1488 16.0897C38.1472 15.4984 39 13.9359 39 12.6978C39 11.6268 38.2993 10.2692 37.355 9.5097C36.7165 8.99633 36.3982 8.89345 35.2755 8.83701C34.2127 8.78338 33.7796 8.85743 33.0918 9.21029ZM3.50259 11.1771C2.953 11.6733 2.85575 11.897 2.85575 12.665C2.85575 14.3296 4.38965 15.3717 5.82592 14.6828C7.24495 14.0023 7.53708 12.3818 6.44047 11.2736C5.53399 10.3575 4.44967 10.3219 3.50259 11.1771ZM33.5338 11.2736C33.0531 11.7593 32.8604 12.1344 32.8604 12.5845C32.8604 13.5222 33.3902 14.389 34.1626 14.7153C35.0012 15.0693 35.7506 14.9134 36.4725 14.2349C37.8911 12.9014 36.9421 10.5931 34.975 10.5931C34.3658 10.5931 34.0681 10.7336 33.5338 11.2736ZM18.3516 14.144C16.9207 15.5899 16.8183 15.6569 16.8183 15.1448C16.8183 14.613 16.7845 14.596 15.729 14.596H14.6398V16.254V17.912L13.5505 18.9992L12.4612 20.0863V24.7465V29.4067H15.3329H18.2047V26.9971V24.5876L19.9376 24.6454L21.6706 24.7033L21.7264 27.055L21.7821 29.4067H24.6477H27.5131V24.7513V20.0959L23.7976 16.3452C21.7543 14.2823 20.0378 12.5945 19.9836 12.5945C19.9293 12.5945 19.1949 13.2918 18.3516 14.144ZM1.97958 18.4954C1.70488 20.0897 1.70686 22.924 1.98394 24.5317L2.20159 25.7941L2.76643 25.4988C3.07697 25.3365 3.47031 25.2036 3.64043 25.2036C3.89592 25.2036 3.92344 25.0557 3.79887 24.353C3.61409 23.3115 3.60023 19.5614 3.77728 18.5903C3.90364 17.8986 3.88581 17.8737 3.04984 17.5699L2.19288 17.2585L1.97958 18.4954ZM36.8803 17.5865L36.0479 17.8795L36.1871 18.7896C36.3687 19.9763 36.3655 23.0447 36.1815 24.2529C36.0623 25.0367 36.09 25.2036 36.34 25.2036C36.5067 25.2036 36.9007 25.3381 37.2154 25.5026L37.7877 25.8019L37.9484 24.8522C38.1569 23.6177 38.1119 18.446 37.8868 17.7961C37.7147 17.2991 37.703 17.2967 36.8803 17.5865ZM3.55824 26.4537C1.5605 27.1316 0.4431 29.7359 1.28085 31.762C2.12039 33.7928 4.57701 34.8004 6.57554 33.9337C7.35229 33.5971 8.40097 32.5095 8.68617 31.7454C9.29537 30.1122 8.62537 27.946 7.20198 26.9471C6.2747 26.2964 4.66475 26.0785 3.55824 26.4537ZM33.7883 26.4079C32.9107 26.6741 31.904 27.5541 31.4513 28.4512C30.8873 29.5682 30.9869 31.4571 31.6622 32.4533C32.5206 33.7194 33.3209 34.1101 35.0556 34.1101C36.4652 34.1101 36.647 34.0616 37.3477 33.498C39.7625 31.5562 39.4424 27.9542 36.742 26.6835C35.707 26.1966 34.7728 26.1093 33.7883 26.4079ZM4.00861 28.3285C3.39405 28.6349 2.75673 29.637 2.75673 30.2975C2.75673 30.8049 3.29899 31.749 3.78996 32.0964C4.03257 32.2683 4.57681 32.4088 4.99925 32.4088C6.0111 32.4088 7.11384 31.3703 7.11384 30.4174C7.11384 29.4839 6.58386 28.6127 5.81978 28.2901C4.97846 27.9348 4.79051 27.9388 4.00861 28.3285ZM34.1111 28.2987C33.3849 28.6177 32.8604 29.5063 32.8604 30.4174C32.8604 31.3703 33.9632 32.4088 34.975 32.4088C35.3975 32.4088 35.9417 32.2683 36.1843 32.0964C36.6753 31.749 37.2175 30.8049 37.2175 30.2975C37.2175 29.6166 36.5765 28.6293 35.9346 28.3213C35.1428 27.9416 34.9293 27.939 34.1111 28.2987ZM8.13341 34.3771L7.46974 34.9335L8.1647 35.5503C9.69543 36.9085 11.8069 38.1384 13.7937 38.8291L14.8378 39.1921L14.8406 38.6525C14.842 38.3557 14.897 37.9104 14.9626 37.6626C15.0454 37.3504 14.9959 37.2123 14.801 37.2123C14.2847 37.2123 11.387 35.6758 10.1335 34.7371C9.45243 34.2271 8.87313 33.8123 8.84619 33.8153C8.81926 33.8183 8.49861 34.071 8.13341 34.3771ZM29.9887 34.6252C28.944 35.4636 25.7019 37.2123 25.1923 37.2123C24.9778 37.2123 24.9263 37.3406 25.0117 37.6626C25.0772 37.9104 25.1323 38.3591 25.1337 38.66L25.1365 39.2071L26.4131 38.7388C28.0803 38.1274 30.422 36.7646 31.5889 35.7268L32.5188 34.9L31.8116 34.3548C31.4226 34.0552 31.0762 33.8145 31.0417 33.8203C31.0073 33.8261 30.5333 34.1883 29.9887 34.6252ZM18.3037 35.389C15.2038 36.8348 15.2937 41.3745 18.4487 42.7067C19.8376 43.2931 21.6331 42.9787 22.7337 41.9561C24.2955 40.5053 24.2955 37.5219 22.7337 36.0711C21.5923 35.0107 19.7297 34.7239 18.3037 35.389ZM18.9499 37.1252C18.3552 37.4515 17.8086 38.3557 17.8086 39.0136C17.8086 40.0744 18.9375 41.2152 19.9871 41.2152C20.2159 41.2152 20.6643 41.0785 20.9839 40.9116C21.6098 40.5845 22.1657 39.6917 22.1657 39.0136C22.1657 38.3355 21.6098 37.4427 20.9839 37.1156C20.2614 36.7382 19.6508 36.741 18.9499 37.1252Z" fill="#C5122D"/>
</svg>
