<svg width="32" height="32" viewBox="0 0 32 32" fill="none" xmlns="http://www.w3.org/2000/svg">
<path d="M16.2676 0C9.64008 0 4.26758 5.3725 4.26758 12C4.26758 14.839 5.51858 17.3355 6.90308 19.5L15.4516 31.578C15.6391 31.843 15.9436 32 16.2676 32C16.5916 32 16.8961 31.843 17.0836 31.578L25.6321 19.5C26.9551 17.719 28.2676 14.839 28.2676 12C28.2676 5.3725 22.8951 0 16.2676 0Z" fill="#231F20"/>
<rect x="9" y="5" width="14" height="14" rx="1.75" fill="white"/>
<path d="M10.2212 10V7.45455H11.9364V7.89826H10.7594V8.50479H11.8482V8.94851H10.7594V9.55629H11.9414V10H10.2212ZM14.4934 7.45455V10H14.0285L12.9211 8.3979H12.9025V10H12.3643V7.45455H12.8366L13.9353 9.0554H13.9577V7.45455H14.4934ZM14.8411 7.89826V7.45455H16.9316V7.89826H16.1523V10H15.6204V7.89826H14.8411ZM17.2759 10V7.45455H18.2802C18.4724 7.45455 18.6365 7.48893 18.7724 7.55771C18.9091 7.62565 19.0131 7.72218 19.0843 7.8473C19.1564 7.97159 19.1925 8.11784 19.1925 8.28604C19.1925 8.45508 19.156 8.6005 19.0831 8.7223C19.0102 8.84328 18.9045 8.93608 18.7662 9.00071C18.6286 9.06534 18.4621 9.09766 18.2665 9.09766H17.5941V8.66513H18.1795C18.2823 8.66513 18.3676 8.65104 18.4355 8.62287C18.5035 8.5947 18.554 8.55244 18.5872 8.49609C18.6212 8.43975 18.6381 8.36973 18.6381 8.28604C18.6381 8.20153 18.6212 8.13027 18.5872 8.07227C18.554 8.01426 18.5031 7.97035 18.4343 7.94052C18.3664 7.90986 18.2806 7.89453 18.177 7.89453H17.8141V10H17.2759ZM18.6506 8.84162L19.2832 10H18.6891L18.0701 8.84162H18.6506ZM19.3177 7.45455H19.9205L20.5009 8.55078H20.5258L21.1062 7.45455H21.709L20.7806 9.10014V10H20.2461V9.10014L19.3177 7.45455Z" fill="black"/>
<path d="M16 11.458V15.5413M16 11.458L14.25 13.208M16 11.458L17.75 13.208" stroke="black" stroke-width="0.583333" stroke-linecap="round" stroke-linejoin="round"/>
</svg>
