<svg width="24" height="24" viewBox="0 0 24 24" fill="none" xmlns="http://www.w3.org/2000/svg">
<circle cx="12" cy="12" r="11.5" fill="white" stroke="#E5E7EB"/>
<path fill-rule="evenodd" clip-rule="evenodd" d="M10.6209 4.12791C10.0188 4.38514 9.61053 5.16649 9.75461 5.78573C10.0181 6.91737 11.3174 7.34898 12.2195 6.60442C13.51 5.53935 12.1714 3.46548 10.6209 4.12791ZM10.3409 7.76619C9.15771 8.62594 8.19563 9.95542 7.66787 11.4602C7.41995 12.1668 7.44622 12.4125 7.80724 12.7666C8.45262 13.3996 9.2254 13.0584 9.53839 12.0022C9.633 11.6832 10.2808 10.485 10.4943 10.2342C10.5938 10.1173 10.699 10.0449 10.728 10.0734C10.757 10.1018 10.7791 10.6174 10.7771 11.2191C10.7693 13.5283 9.84423 15.5335 7.66806 17.9583C7.38234 18.2767 7.10387 18.6525 7.04932 18.7933C6.90796 19.1579 7.08031 19.6149 7.44052 19.8303C8.04022 20.189 8.42036 20.0156 9.3558 18.957C11.2369 16.8283 12.4962 14.2735 12.6308 12.3133C12.6974 11.3427 12.7027 11.3318 13.0038 11.5401C13.5008 11.884 14.2058 12.1799 14.528 12.1799C14.9798 12.1799 15.4741 11.7076 15.4721 11.2778C15.47 10.8109 15.2874 10.5656 14.7022 10.2432C13.8402 9.76851 13.241 9.27024 12.6588 8.54425C11.7065 7.35662 11.7346 7.38035 11.2801 7.38035C10.9405 7.38035 10.7827 7.44515 10.3409 7.76619ZM13.0726 13.2951C13.0408 13.4395 12.8924 13.9176 12.7427 14.3575C12.5929 14.7975 12.4497 15.2397 12.4243 15.3401C12.3937 15.4609 12.7536 16.2403 13.4855 17.6386C14.4931 19.5639 14.6209 19.766 14.905 19.8823C15.5045 20.1281 16.1456 19.712 16.1428 19.0789C16.142 18.8969 15.6244 17.8109 14.6359 15.9171C13.3016 13.3614 13.1236 13.0626 13.0726 13.2951Z" fill="#333333"/>
</svg>
