<svg width="24" height="24" viewBox="0 0 24 24" fill="none" xmlns="http://www.w3.org/2000/svg">
<circle cx="12" cy="12" r="12" fill="#24B9B0"/>
<mask id="mask0_12765_12342" style="mask-type:alpha" maskUnits="userSpaceOnUse" x="4" y="4" width="16" height="16">
<rect x="4" y="4" width="16" height="16" fill="#D9D9D9"/>
</mask>
<g mask="url(#mask0_12765_12342)">
<path d="M12 15.333C12.9222 15.333 13.7083 15.008 14.3583 14.358C15.0083 13.708 15.3333 12.9219 15.3333 11.9997C15.3333 11.0775 15.0083 10.2913 14.3583 9.64134C13.7083 8.99134 12.9222 8.66634 12 8.66634C11.0778 8.66634 10.2917 8.99134 9.64166 9.64134C8.99166 10.2913 8.66666 11.0775 8.66666 11.9997C8.66666 12.9219 8.99166 13.708 9.64166 14.358C10.2917 15.008 11.0778 15.333 12 15.333ZM12 18.6663C11.0778 18.6663 10.2111 18.4913 9.39999 18.1413C8.58888 17.7913 7.88333 17.3163 7.28333 16.7163C6.68333 16.1163 6.20833 15.4108 5.85833 14.5997C5.50833 13.7886 5.33333 12.9219 5.33333 11.9997C5.33333 11.0775 5.50833 10.2108 5.85833 9.39967C6.20833 8.58856 6.68333 7.88301 7.28333 7.28301C7.88333 6.68301 8.58888 6.20801 9.39999 5.85801C10.2111 5.50801 11.0778 5.33301 12 5.33301C12.9222 5.33301 13.7889 5.50801 14.6 5.85801C15.4111 6.20801 16.1167 6.68301 16.7167 7.28301C17.3167 7.88301 17.7917 8.58856 18.1417 9.39967C18.4917 10.2108 18.6667 11.0775 18.6667 11.9997C18.6667 12.9219 18.4917 13.7886 18.1417 14.5997C17.7917 15.4108 17.3167 16.1163 16.7167 16.7163C16.1167 17.3163 15.4111 17.7913 14.6 18.1413C13.7889 18.4913 12.9222 18.6663 12 18.6663ZM12 17.333C13.4889 17.333 14.75 16.8163 15.7833 15.783C16.8167 14.7497 17.3333 13.4886 17.3333 11.9997C17.3333 10.5108 16.8167 9.24967 15.7833 8.21634C14.75 7.18301 13.4889 6.66634 12 6.66634C10.5111 6.66634 9.24999 7.18301 8.21666 8.21634C7.18333 9.24967 6.66666 10.5108 6.66666 11.9997C6.66666 13.4886 7.18333 14.7497 8.21666 15.783C9.24999 16.8163 10.5111 17.333 12 17.333Z" fill="white"/>
</g>
</svg>
