<svg width="47" height="48" viewBox="0 0 47 48" fill="none" xmlns="http://www.w3.org/2000/svg">
<rect width="47" height="48" fill="#24B9B0"/>
<mask id="mask0_8629_3186" style="mask-type:alpha" maskUnits="userSpaceOnUse" x="12" y="12" width="24" height="24">
<rect x="12" y="12" width="24" height="24" fill="#D9D9D9"/>
</mask>
<g mask="url(#mask0_8629_3186)">
<path d="M24 36C23.7 36 23.405 35.94 23.115 35.82C22.825 35.7 22.56 35.52 22.32 35.28L12.72 25.68C12.48 25.44 12.3 25.175 12.18 24.885C12.06 24.595 12 24.3 12 24C12 23.7 12.06 23.405 12.18 23.115C12.3 22.825 12.48 22.56 12.72 22.32L22.32 12.72C22.56 12.48 22.825 12.3 23.115 12.18C23.405 12.06 23.7 12 24 12C24.3 12 24.595 12.06 24.885 12.18C25.175 12.3 25.44 12.48 25.68 12.72L35.28 22.32C35.52 22.56 35.7 22.825 35.82 23.115C35.94 23.405 36 23.7 36 24C36 24.3 35.94 24.595 35.82 24.885C35.7 25.175 35.52 25.44 35.28 25.68L25.68 35.28C25.44 35.52 25.175 35.7 24.885 35.82C24.595 35.94 24.3 36 24 36Z" fill="white"/>
<path d="M19.2002 27.5996H21.6002V23.9996H25.8002V26.9996L30.0002 22.7996L25.8002 18.5996V21.5996H20.4002C20.0602 21.5996 19.7752 21.7146 19.5452 21.9446C19.3152 22.1746 19.2002 22.4596 19.2002 22.7996V27.5996Z" fill="black"/>
</g>
</svg>
