<svg width="24" height="24" viewBox="0 0 24 24" fill="none" xmlns="http://www.w3.org/2000/svg">
<path d="M8.26897 8.49698C9.60897 7.67498 10.779 8.00698 11.483 8.53398C11.771 8.74998 11.915 8.85898 12 8.85898C12.085 8.85898 12.229 8.74998 12.517 8.53398C13.22 8.00598 14.391 7.67398 15.731 8.49698C17.491 9.57698 17.889 13.137 13.831 16.142C13.057 16.714 12.671 17 12 17C11.33 17 10.943 16.714 10.17 16.142C6.10997 13.137 6.50897 9.57598 8.26897 8.49698Z" stroke="#5D5C5F" stroke-width="1.5" stroke-linecap="round" stroke-linejoin="round"/>
<path d="M22 12C22 6.477 17.523 2 12 2C6.477 2 2 6.477 2 12C2 17.523 6.477 22 12 22C17.523 22 22 17.523 22 12Z" stroke="#5D5C5F" stroke-width="1.5" stroke-linecap="round" stroke-linejoin="round"/>
</svg>
