<svg width="67" height="56" viewBox="0 0 67 56" fill="none" xmlns="http://www.w3.org/2000/svg">
<mask id="mask0_8046_1431" style="mask-type:alpha" maskUnits="userSpaceOnUse" x="21" y="6" width="24" height="24">
<rect x="21" y="6" width="24" height="24" fill="#D9D9D9"/>
</mask>
<g mask="url(#mask0_8046_1431)">
<path d="M27 25H30V19H36V25H39V16L33 11.5L27 16V25ZM25 27V15L33 9L41 15V27H34V21H32V27H25Z" fill="#4A4545"/>
</g>
<path d="M23.0625 40.1367V41.0566H18.4453V40.1367H23.0625ZM18.6211 36.4688V45H17.4902V36.4688H18.6211ZM24.0469 36.4688V45H22.9219V36.4688H24.0469ZM25.6055 41.9004V41.7656C25.6055 41.3086 25.6719 40.8848 25.8047 40.4941C25.9375 40.0996 26.1289 39.7578 26.3789 39.4688C26.6289 39.1758 26.9316 38.9492 27.2871 38.7891C27.6426 38.625 28.041 38.543 28.4824 38.543C28.9277 38.543 29.3281 38.625 29.6836 38.7891C30.043 38.9492 30.3477 39.1758 30.5977 39.4688C30.8516 39.7578 31.0449 40.0996 31.1777 40.4941C31.3105 40.8848 31.377 41.3086 31.377 41.7656V41.9004C31.377 42.3574 31.3105 42.7812 31.1777 43.1719C31.0449 43.5625 30.8516 43.9043 30.5977 44.1973C30.3477 44.4863 30.0449 44.7129 29.6895 44.877C29.3379 45.0371 28.9395 45.1172 28.4941 45.1172C28.0488 45.1172 27.6484 45.0371 27.293 44.877C26.9375 44.7129 26.6328 44.4863 26.3789 44.1973C26.1289 43.9043 25.9375 43.5625 25.8047 43.1719C25.6719 42.7812 25.6055 42.3574 25.6055 41.9004ZM26.6895 41.7656V41.9004C26.6895 42.2168 26.7266 42.5156 26.8008 42.7969C26.875 43.0742 26.9863 43.3203 27.1348 43.5352C27.2871 43.75 27.4766 43.9199 27.7031 44.0449C27.9297 44.166 28.1934 44.2266 28.4941 44.2266C28.791 44.2266 29.0508 44.166 29.2734 44.0449C29.5 43.9199 29.6875 43.75 29.8359 43.5352C29.9844 43.3203 30.0957 43.0742 30.1699 42.7969C30.248 42.5156 30.2871 42.2168 30.2871 41.9004V41.7656C30.2871 41.4531 30.248 41.1582 30.1699 40.8809C30.0957 40.5996 29.9824 40.3516 29.8301 40.1367C29.6816 39.918 29.4941 39.7461 29.2676 39.6211C29.0449 39.4961 28.7832 39.4336 28.4824 39.4336C28.1855 39.4336 27.9238 39.4961 27.6973 39.6211C27.4746 39.7461 27.2871 39.918 27.1348 40.1367C26.9863 40.3516 26.875 40.5996 26.8008 40.8809C26.7266 41.1582 26.6895 41.4531 26.6895 41.7656ZM33.8145 39.9199V45H32.7246V38.6602H33.7559L33.8145 39.9199ZM33.5918 41.5898L33.0879 41.5723C33.0918 41.1387 33.1484 40.7383 33.2578 40.3711C33.3672 40 33.5293 39.6777 33.7441 39.4043C33.959 39.1309 34.2266 38.9199 34.5469 38.7715C34.8672 38.6191 35.2383 38.543 35.6602 38.543C35.957 38.543 36.2305 38.5859 36.4805 38.6719C36.7305 38.7539 36.9473 38.8848 37.1309 39.0645C37.3145 39.2441 37.457 39.4746 37.5586 39.7559C37.6602 40.0371 37.7109 40.377 37.7109 40.7754V45H36.627V40.8281C36.627 40.4961 36.5703 40.2305 36.457 40.0312C36.3477 39.832 36.1914 39.6875 35.9883 39.5977C35.7852 39.5039 35.5469 39.457 35.2734 39.457C34.9531 39.457 34.6855 39.5137 34.4707 39.627C34.2559 39.7402 34.084 39.8965 33.9551 40.0957C33.8262 40.2949 33.7324 40.5234 33.6738 40.7812C33.6191 41.0352 33.5918 41.3047 33.5918 41.5898ZM37.6992 40.9922L36.9727 41.2148C36.9766 40.8672 37.0332 40.5332 37.1426 40.2129C37.2559 39.8926 37.418 39.6074 37.6289 39.3574C37.8438 39.1074 38.1074 38.9102 38.4199 38.7656C38.7324 38.6172 39.0898 38.543 39.4922 38.543C39.832 38.543 40.1328 38.5879 40.3945 38.6777C40.6602 38.7676 40.8828 38.9062 41.0625 39.0938C41.2461 39.2773 41.3848 39.5137 41.4785 39.8027C41.5723 40.0918 41.6191 40.4355 41.6191 40.834V45H40.5293V40.8223C40.5293 40.4668 40.4727 40.1914 40.3594 39.9961C40.25 39.7969 40.0938 39.6582 39.8906 39.5801C39.6914 39.498 39.4531 39.457 39.1758 39.457C38.9375 39.457 38.7266 39.498 38.543 39.5801C38.3594 39.6621 38.2051 39.7754 38.0801 39.9199C37.9551 40.0605 37.8594 40.2227 37.793 40.4062C37.7305 40.5898 37.6992 40.7852 37.6992 40.9922ZM45.8906 45.1172C45.4492 45.1172 45.0488 45.043 44.6895 44.8945C44.334 44.7422 44.0273 44.5293 43.7695 44.2559C43.5156 43.9824 43.3203 43.6582 43.1836 43.2832C43.0469 42.9082 42.9785 42.498 42.9785 42.0527V41.8066C42.9785 41.291 43.0547 40.832 43.207 40.4297C43.3594 40.0234 43.5664 39.6797 43.8281 39.3984C44.0898 39.1172 44.3867 38.9043 44.7188 38.7598C45.0508 38.6152 45.3945 38.543 45.75 38.543C46.2031 38.543 46.5938 38.6211 46.9219 38.7773C47.2539 38.9336 47.5254 39.1523 47.7363 39.4336C47.9473 39.7109 48.1035 40.0391 48.2051 40.418C48.3066 40.793 48.3574 41.2031 48.3574 41.6484V42.1348H43.623V41.25H47.2734V41.168C47.2578 40.8867 47.1992 40.6133 47.0977 40.3477C47 40.082 46.8438 39.8633 46.6289 39.6914C46.4141 39.5195 46.1211 39.4336 45.75 39.4336C45.5039 39.4336 45.2773 39.4863 45.0703 39.5918C44.8633 39.6934 44.6855 39.8457 44.5371 40.0488C44.3887 40.252 44.2734 40.5 44.1914 40.793C44.1094 41.0859 44.0684 41.4238 44.0684 41.8066V42.0527C44.0684 42.3535 44.1094 42.6367 44.1914 42.9023C44.2773 43.1641 44.4004 43.3945 44.5605 43.5938C44.7246 43.793 44.9219 43.9492 45.1523 44.0625C45.3867 44.1758 45.6523 44.2324 45.9492 44.2324C46.332 44.2324 46.6562 44.1543 46.9219 43.998C47.1875 43.8418 47.4199 43.6328 47.6191 43.3711L48.2754 43.8926C48.1387 44.0996 47.9648 44.2969 47.7539 44.4844C47.543 44.6719 47.2832 44.8242 46.9746 44.9414C46.6699 45.0586 46.3086 45.1172 45.8906 45.1172Z" fill="#4B4B4B"/>
</svg>
