<svg width="20" height="20" viewBox="0 0 20 20" fill="none" xmlns="http://www.w3.org/2000/svg">
<mask id="mask0_12889_10087" style="mask-type:alpha" maskUnits="userSpaceOnUse" x="0" y="0" width="20" height="20">
<rect width="20" height="20" fill="#D9D9D9"/>
</mask>
<g mask="url(#mask0_12889_10087)">
<path d="M14.1681 18.3307C13.4736 18.3307 12.8834 18.0877 12.3973 17.6016C11.9111 17.1154 11.6681 16.5252 11.6681 15.8307C11.6681 15.7474 11.6889 15.5529 11.7306 15.2474L5.87642 11.8307C5.6542 12.0391 5.39726 12.2023 5.10559 12.3203C4.81392 12.4384 4.50142 12.4974 4.16809 12.4974C3.47365 12.4974 2.88337 12.2543 2.39726 11.7682C1.91115 11.2821 1.66809 10.6918 1.66809 9.99739C1.66809 9.30295 1.91115 8.71267 2.39726 8.22656C2.88337 7.74045 3.47365 7.4974 4.16809 7.4974C4.50142 7.4974 4.81392 7.55642 5.10559 7.67448C5.39726 7.79253 5.6542 7.95573 5.87642 8.16406L11.7306 4.7474C11.7028 4.65017 11.6855 4.55642 11.6785 4.46615C11.6716 4.37587 11.6681 4.27517 11.6681 4.16406C11.6681 3.46962 11.9111 2.87934 12.3973 2.39323C12.8834 1.90712 13.4736 1.66406 14.1681 1.66406C14.8625 1.66406 15.4528 1.90712 15.9389 2.39323C16.425 2.87934 16.6681 3.46962 16.6681 4.16406C16.6681 4.85851 16.425 5.44878 15.9389 5.9349C15.4528 6.42101 14.8625 6.66406 14.1681 6.66406C13.8348 6.66406 13.5223 6.60503 13.2306 6.48698C12.9389 6.36892 12.682 6.20573 12.4598 5.9974L6.60559 9.41406C6.63337 9.51128 6.65073 9.60503 6.65767 9.69531C6.66462 9.78559 6.66809 9.88628 6.66809 9.99739C6.66809 10.1085 6.66462 10.2092 6.65767 10.2995C6.65073 10.3898 6.63337 10.4835 6.60559 10.5807L12.4598 13.9974C12.682 13.7891 12.9389 13.6259 13.2306 13.5078C13.5223 13.3898 13.8348 13.3307 14.1681 13.3307C14.8625 13.3307 15.4528 13.5738 15.9389 14.0599C16.425 14.546 16.6681 15.1363 16.6681 15.8307C16.6681 16.5252 16.425 17.1154 15.9389 17.6016C15.4528 18.0877 14.8625 18.3307 14.1681 18.3307Z" fill="#1C1B1F"/>
</g>
</svg>
