<svg width="11" height="18" viewBox="0 0 11 18" fill="none" xmlns="http://www.w3.org/2000/svg">
<path fill-rule="evenodd" clip-rule="evenodd" d="M3.99583 0.143916C3.33133 0.433316 2.88083 1.31242 3.03983 2.00912C3.33063 3.28232 4.76443 3.76792 5.75993 2.93022C7.18403 1.73192 5.70683 -0.601384 3.99583 0.143916ZM3.68683 4.23732C2.38113 5.20462 1.31943 6.70042 0.737028 8.39342C0.463428 9.18842 0.492428 9.46482 0.890828 9.86322C1.60303 10.5754 2.45583 10.1915 2.80123 9.00322C2.90563 8.64432 3.62053 7.29622 3.85613 7.01402C3.96593 6.88252 4.08203 6.80112 4.11403 6.83312C4.14603 6.86512 4.17043 7.44522 4.16823 8.12222C4.15963 10.7202 3.13873 12.9763 0.737228 15.7044C0.421928 16.0626 0.114628 16.4854 0.0544281 16.6438C-0.101572 17.0541 0.0886282 17.5682 0.486128 17.8106C1.14793 18.2141 1.56743 18.0191 2.59973 16.828C4.67563 14.433 6.06533 11.5586 6.21383 9.35322C6.28733 8.26122 6.29313 8.24892 6.62543 8.48332C7.17393 8.87022 7.95193 9.20322 8.30753 9.20322C8.80603 9.20322 9.35153 8.67182 9.34933 8.18822C9.34703 7.66292 9.14553 7.38692 8.49973 7.02422C7.54843 6.49012 6.88723 5.92952 6.24473 5.11272C5.19383 3.77652 5.22483 3.80322 4.72333 3.80322C4.34853 3.80322 4.17443 3.87612 3.68683 4.23732ZM6.70133 10.4579C6.66633 10.6203 6.50253 11.1582 6.33733 11.6532C6.17203 12.1482 6.01393 12.6457 5.98593 12.7587C5.95223 12.8946 6.34933 13.7715 7.15703 15.3447C8.26893 17.5108 8.41003 17.7382 8.72353 17.8691C9.38513 18.1456 10.0925 17.6775 10.0895 16.9652C10.0886 16.7604 9.51743 15.5385 8.42653 13.4079C6.95413 10.5324 6.75763 10.1963 6.70133 10.4579Z" fill="#333333"/>
</svg>
